#N canvas 534 609 485 300 12;
#X obj 34 22 notein;
#X floatatom 34 60 5 0 0 0 - - - 0;
#X floatatom 84 60 5 0 0 0 - - - 0;
#X floatatom 168 69 5 0 0 0 - - - 0;
#X obj 84 161 moses 1;
#X obj 168 106 s channel;
#X obj 34 106 s note;
#X obj 84 106 s velocity;
#X obj 84 134 r velocity;
#X obj 266 55 loadbang;
#X obj 244 233 pack s s f s f s f;
#X obj 244 258 print;
#X obj 326 175 r note;
#X obj 285 146 r channel;
#X obj 367 201 r velocity;
#X msg 176 185 NoteOn;
#X msg 102 198 NoteOff;
#X obj 237 118 symbol Ch;
#X obj 305 85 symbol Note;
#X obj 346 117 symbol Velocity;
#X connect 0 0 1 0;
#X connect 0 1 2 0;
#X connect 0 2 3 0;
#X connect 1 0 6 0;
#X connect 2 0 7 0;
#X connect 3 0 5 0;
#X connect 4 0 16 0;
#X connect 4 1 15 0;
#X connect 8 0 4 0;
#X connect 9 0 17 0;
#X connect 9 0 18 0;
#X connect 9 0 19 0;
#X connect 10 0 11 0;
#X connect 12 0 10 4;
#X connect 13 0 10 2;
#X connect 14 0 10 6;
#X connect 15 0 10 0;
#X connect 16 0 10 0;
#X connect 17 0 10 1;
#X connect 18 0 10 3;
#X connect 19 0 10 5;
